<svg>
  <defs>
    <g id="change_role">
      <path d="M5,7.3v1.9l2.5-2.5L5,4.1V6c-2.8,0-5,2.2-5,5c0,1,0.3,1.9,0.8,2.7l0.9-0.9
			c-0.3-0.5-0.4-1.1-0.4-1.8C1.3,9,2.9,7.3,5,7.3z M9.3,8.4L8.4,9.3c0.3,0.5,0.4,1.1,0.4,1.8c0,2.1-1.7,3.8-3.8,3.8v-1.9l-2.5,2.5
			L5,17.9v-1.9c2.8,0,5-2.2,5-5C10.1,10,9.8,9.1,9.3,8.4z"/>
      <path d="M15.5,11.9c2.3,0,4.2-1.9,4.2-4.2s-1.9-4.2-4.2-4.2s-4.2,1.9-4.2,4.2S13.2,11.9,15.5,11.9z
			 M15.5,14.7c-2.8,0-8.5,1.4-8.5,4.2v2.8H24v-2.8C24,16.1,18.4,14.7,15.5,14.7z"/>
    </g>
    <g id="upload">
      <path d="M9,16V10H5L12,3L19,10H15V16H9M5,20V18H19V20H5Z" />
    </g>
    <g id="task_previous">
      <path d="M10.3,0H5.7v1.5h4.6L10.3,0L10.3,0z M7.3,9.9h1.5V5.3H7.3V9.9z M13.3,4.9l1.1-1.1c-0.3-0.4-0.7-0.7-1.1-1.1l-1.1,1.1
	    C11.1,2.9,9.6,2.3,8,2.3c-3.8,0-6.9,3.1-6.9,6.9S4.2,16,8,16s6.9-3.1,6.9-6.9C14.9,7.5,14.3,6.1,13.3,4.9z M8,14.5
	    c-2.9,0-5.3-2.4-5.3-5.3S5.1,3.8,8,3.8s5.3,2.4,5.3,5.3S10.9,14.5,8,14.5z"/>
    </g>
    <g id="facebook">
      <path d="M16.18,13,16.69,9H12.8V6.53c0-1.13.31-1.91,1.94-1.91h2.08V1.11a27.61,27.61,0,0,0-3-.15c-3,0-5,1.83-5,5.19V9H5.35V13H8.74V23H12.8V13Z"/>
    </g>
    <g id="instagram">
      <path class="cls-1" d="M7.8,2h8.4A5.8,5.8,0,0,1,22,7.8v8.4A5.8,5.8,0,0,1,16.2,22H7.8A5.8,5.8,0,0,1,2,16.2V7.8A5.8,5.8,0,0,1,7.8,2M7.6,4A3.6,3.6,0,0,0,4,7.6H4v8.8A3.6,3.6,0,0,0,7.6,20h8.8A3.6,3.6,0,0,0,20,16.4h0V7.6A3.6,3.6,0,0,0,16.4,4H7.6m9.65,1.5A1.25,1.25,0,1,1,16,6.75,1.25,1.25,0,0,1,17.25,5.5M12,7a5,5,0,1,1-5,5,5,5,0,0,1,5-5m0,2a3,3,0,1,0,3,3A3,3,0,0,0,12,9Z"/>
    </g>
    <g id="google">
      <svg version="1.1" xmlns="http://www.w3.org/2000/svg" width="24px" height="24px" viewBox="0 0 48 48" class="abcRioButtonSvg"><g><path fill="#EA4335" d="M24 9.5c3.54 0 6.71 1.22 9.21 3.6l6.85-6.85C35.9 2.38 30.47 0 24 0 14.62 0 6.51 5.38 2.56 13.22l7.98 6.19C12.43 13.72 17.74 9.5 24 9.5z"/><path fill="#4285F4" d="M46.98 24.55c0-1.57-.15-3.09-.38-4.55H24v9.02h12.94c-.58 2.96-2.26 5.48-4.78 7.18l7.73 6c4.51-4.18 7.09-10.36 7.09-17.65z"/><path fill="#FBBC05" d="M10.53 28.59c-.48-1.45-.76-2.99-.76-4.59s.27-3.14.76-4.59l-7.98-6.19C.92 16.46 0 20.12 0 24c0 3.88.92 7.54 2.56 10.78l7.97-6.19z"/><path fill="#34A853" d="M24 48c6.48 0 11.93-2.13 15.89-5.81l-7.73-6c-2.15 1.45-4.92 2.3-8.16 2.3-6.26 0-11.57-4.22-13.47-9.91l-7.98 6.19C6.51 42.62 14.62 48 24 48z"/><path fill="none" d="M0 0h48v48H0z"/></g></svg>
    </g>
    <g id="twitter">
      <path d="M22.46 6c-.77.35-1.6.58-2.46.69.88-.53 1.56-1.37 1.88-2.38-.83.5-1.75.85-2.72 1.05C18.37 4.5 17.26 4 16 4c-2.35 0-4.27 1.92-4.27 4.29 0 .34.04.67.11.98C8.28 9.09 5.11 7.38 3 4.79c-.37.63-.58 1.37-.58 2.15 0 1.49.75 2.81 1.91 3.56-.71 0-1.37-.2-1.95-.5v.03c0 2.08 1.48 3.82 3.44 4.21-.36.1-.74.15-1.13.15-.27 0-.54-.03-.8-.08.54 1.69 2.11 2.95 4 2.98-1.46 1.16-3.31 1.84-5.33 1.84-.34 0-.68-.02-1.02-.06C3.44 20.29 5.7 21 8.12 21 16 21 20.33 14.46 20.33 8.79c0-.19 0-.37-.01-.56.84-.6 1.56-1.36 2.14-2.23z"/>
    </g>
    <g id="whatsapp">
      <path d="M24,11.7c0,6.5-5.3,11.7-11.8,11.7c-2.1,0-4-0.5-5.7-1.5L0,24l2.1-6.3c-1.1-1.8-1.7-3.8-1.7-6
      C0.4,5.2,5.7,0,12.2,0C18.7,0,24,5.2,24,11.7z M12.2,1.9c-5.5,0-9.9,4.4-9.9,9.8c0,2.2,0.7,4.1,1.9,5.8L3,21.1l3.8-1.2
      c1.6,1,3.4,1.6,5.4,1.6c5.5,0,9.9-4.4,9.9-9.8S17.7,1.9,12.2,1.9z M18.2,14.4c-0.1-0.1-0.3-0.2-0.6-0.3c-0.3-0.1-1.7-0.8-2-0.9
      C15.4,13,15.2,13,15,13.3c-0.2,0.3-0.7,0.9-0.9,1.1c-0.2,0.2-0.3,0.2-0.6,0.1c-0.3-0.1-1.2-0.4-2.3-1.4c-0.9-0.8-1.4-1.7-1.6-2
      c-0.2-0.3,0-0.4,0.1-0.6c0.1-0.1,0.3-0.3,0.4-0.5c0.1-0.2,0.2-0.3,0.3-0.5c0.1-0.2,0-0.4,0-0.5c-0.1-0.1-0.7-1.6-0.9-2.1
      C9.2,6.3,9,6.4,8.8,6.4c-0.2,0-0.4,0-0.6,0S7.7,6.4,7.5,6.7c-0.3,0.3-1,1-1,2.4c0,1.4,1,2.8,1.2,3c0.1,0.2,2,3.2,4.9,4.3
      c2.9,1.1,2.9,0.8,3.5,0.7c0.5,0,1.7-0.7,1.9-1.4C18.2,15.1,18.2,14.5,18.2,14.4z"/>
    </g>
    <g id="sasisopa">
      <path id="Trazado_2541" data-name="Trazado 2541" class="cls-1" d="M59.75,47H.51v2.75l.43.14A42,42,0,0,0,7.8,51.57a212.15,212.15,0,0,0,46.38.32,38.53,38.53,0,0,0,8.68-2.07l.14,0V47Z"/>
      <path id="Trazado_2542" data-name="Trazado 2542" class="cls-1" d="M50,19.06s-9.43,17.5-9.43,14.64,1.35-21.93,1.35-21.93h0a29.29,29.29,0,0,0-20.22,0h0S23,30.85,23,33.7s-9.47-14.64-9.47-14.64A28.71,28.71,0,0,0,3.3,44.78h57a27.41,27.41,0,0,0,.22-3.5A28.68,28.68,0,0,0,50,19.06Z"/>
    </g>
  </defs>
</svg>
