<svg>
  <defs>
    <g id="search">
      <path d="M9.5,3A6.5,6.5 0 0,1 16,9.5C16,11.11 15.41,12.59 14.44,13.73L14.71,14H15.5L20.5,19L19,20.5L14,15.5V14.71L13.73,14.44C12.59,15.41 11.11,16 9.5,16A6.5,6.5 0 0,1 3,9.5A6.5,6.5 0 0,1 9.5,3M9.5,5C7,5 5,7 5,9.5C5,12 7,14 9.5,14C12,14 14,12 14,9.5C14,7 12,5 9.5,5Z" />
    </g>
    <g id="log_out">
      <path d="M14.08,15.59L16.67,13H7V11H16.67L14.08,8.41L15.5,7L20.5,12L15.5,17L14.08,15.59M19,3A2,2 0 0,1 21,5V9.67L19,7.67V5H5V19H19V16.33L21,14.33V19A2,2 0 0,1 19,21H5C3.89,21 3,20.1 3,19V5C3,3.89 3.89,3 5,3H19Z" />
    </g>
    <g id="missed_tasks">
      <path d="M2,6V8H14V6H2M2,10V12H11V10H2M14.17,10.76L12.76,12.17L15.59,15L12.76,17.83L14.17,19.24L17,16.41L19.83,19.24L21.24,17.83L18.41,15L21.24,12.17L19.83,10.76L17,13.59L14.17,10.76M2,14V16H11V14H2Z" />
    </g>
    <g id="complete_task">
      <path d="M14,10H2V12H14V10M14,6H2V8H14V6M2,16H10V14H2V16M21.5,11.5L23,13L16,20L11.5,15.5L13,14L16,17L21.5,11.5Z" />
    </g>
    <g id="all_tasks">
      <path d="M4,5V7H21V5M4,11H21V9H4M4,19H21V17H4M4,15H21V13H4V15Z" />
    </g>
    <g id="late_tasks">
      <path d="M6,1V3H5C3.89,3 3,3.89 3,5V19A2,2 0 0,0 5,21H19A2,2 0 0,0 21,19V5A2,2 0 0,0 19,3H18V1H16V3H8V1H6M5,7H19V19H5V7M11,8V13H13V8H11M11,15V17H13V15H11Z" />
    </g>
    <g id="calendar">
      <path d="M19,19H5V8H19M16,1V3H8V1H6V3H5C3.89,3 3,3.89 3,5V19A2,2 0 0,0 5,21H19A2,2 0 0,0 21,19V5C21,3.89 20.1,3 19,3H18V1" />
    </g>
    <g id="notifications_available">
      <path d="M21,19V20H3V19L5,17V11C5,7.9 7.03,5.17 10,4.29C10,4.19 10,4.1 10,4A2,2 0 0,1 12,2A2,2 0 0,1 14,4C14,4.1 14,4.19 14,4.29C16.97,5.17 19,7.9 19,11V17L21,19M14,21A2,2 0 0,1 12,23A2,2 0 0,1 10,21" />
    </g>
    <g id="disable_notification">
      <path d="M20.84,22.73L18.11,20H3V19L5,17V11C5,9.86 5.29,8.73 5.83,7.72L1.11,3L2.39,1.73L22.11,21.46L20.84,22.73M19,15.8V11C19,7.9 16.97,5.17 14,4.29C14,4.19 14,4.1 14,4A2,2 0 0,0 12,2A2,2 0 0,0 10,4C10,4.1 10,4.19 10,4.29C9.39,4.47 8.8,4.74 8.26,5.09L19,15.8M12,23A2,2 0 0,0 14,21H10A2,2 0 0,0 12,23Z" />
    </g>
  </defs>
</svg>
