<svg>
  <defs>
    <g id="change_role">
      <path d="M5,7.3v1.9l2.5-2.5L5,4.1V6c-2.8,0-5,2.2-5,5c0,1,0.3,1.9,0.8,2.7l0.9-0.9
			c-0.3-0.5-0.4-1.1-0.4-1.8C1.3,9,2.9,7.3,5,7.3z M9.3,8.4L8.4,9.3c0.3,0.5,0.4,1.1,0.4,1.8c0,2.1-1.7,3.8-3.8,3.8v-1.9l-2.5,2.5
			L5,17.9v-1.9c2.8,0,5-2.2,5-5C10.1,10,9.8,9.1,9.3,8.4z"/>
      <path d="M15.5,11.9c2.3,0,4.2-1.9,4.2-4.2s-1.9-4.2-4.2-4.2s-4.2,1.9-4.2,4.2S13.2,11.9,15.5,11.9z
			 M15.5,14.7c-2.8,0-8.5,1.4-8.5,4.2v2.8H24v-2.8C24,16.1,18.4,14.7,15.5,14.7z"/>
    </g>
    <g id="upload">
      <path d="M9,16V10H5L12,3L19,10H15V16H9M5,20V18H19V20H5Z" />
    </g>
    <g id="task_previous">
      <path d="M10.3,0H5.7v1.5h4.6L10.3,0L10.3,0z M7.3,9.9h1.5V5.3H7.3V9.9z M13.3,4.9l1.1-1.1c-0.3-0.4-0.7-0.7-1.1-1.1l-1.1,1.1
	    C11.1,2.9,9.6,2.3,8,2.3c-3.8,0-6.9,3.1-6.9,6.9S4.2,16,8,16s6.9-3.1,6.9-6.9C14.9,7.5,14.3,6.1,13.3,4.9z M8,14.5
	    c-2.9,0-5.3-2.4-5.3-5.3S5.1,3.8,8,3.8s5.3,2.4,5.3,5.3S10.9,14.5,8,14.5z"/>
    </g>
  </defs>
</svg>
